# xmcd
#
# Track frame offsets:
#	150
#	27522
#	57055
#	89952
#	116887
#	133950
#	151782
#	166545
#	199240
#	230222
#	250980
#	276890
#	294157
#
# Disc length: 4324 seconds
#
# Revision: 5
# Processed by: cddbd v1.5.2PL0 Copyright (c) Steve Scherf et al.
# Submitted via: EasyCDDAExtractor 2010.6.0.0
#
DISCID=c010e20d
DTITLE=Various Artist - Dance Classics - The Remixes, Vol 2
DYEAR=1989
DGENRE=Dance
TTITLE0=The Real Thing - You To Me Are Everything (Decade Remix 76-86)
TTITLE1=Bill Withers - Lovely Day (Sunshine Mix)
TTITLE2=Barry White - Never Never Gonna Give You Up (Remix)
TTITLE3=Freeez - I.O.U. (House Mix)
TTITLE4=Miquel Brown - So Many Men, So Little Time ('89 Remix)
TTITLE5=Sugarhill Gang - Rapper's Delight (Hip Hop Remix '89)
TTITLE6=Sister Sledge - We Are Family (Remix)
TTITLE7=Odyssey - Going Back To My Roots ('87 Remix)
TTITLE8=Jackson Five - Blame It On The Boogie (Remix)
TTITLE9=Chic - Jack Le Freak
TTITLE10=Grandmaster Flash and The Furious Five - The Adventures Of Grandmasterf
TTITLE10=lash On The Wheels Of Steel
TTITLE11=Shalamar - The Second Time Around (Hithouse Clubmix)
TTITLE12=Village People - Y.M.C.A. ('89 Remix)
EXTD=
EXTT0=The Real Thing
EXTT1=Bill Withers
EXTT2=Barry White
EXTT3=Freeez
EXTT4=Miquel Brown
EXTT5=Sugarhill Gang
EXTT6=Sister Sledge
EXTT7=Odyssey
EXTT8=The Jacksons
EXTT9=Chic
EXTT10=Grandmaster Flash and The Furious Five
EXTT11=Shalamar
EXTT12=Village People
PLAYORDER=
